<svg width="240" height="151" viewBox="0 0 240 151" fill="none" xmlns="http://www.w3.org/2000/svg">
  <path d="M236.5 150.5C238.433 150.5 240 148.933 240 147C240 145.067 238.433 143.5 236.5 143.5V150.5ZM138.5 139L137.806 142.43L138.5 139ZM50.0003 79L53.0022 77.2004L50.0003 79ZM17.3783 0.282832C15.6015 -0.478406 13.5441 0.344865 12.7828 2.12166L0.377749 31.0762C-0.383488 32.853 0.439782 34.9104 2.21658 35.6717C3.99337 36.4329 6.05085 35.6096 6.81209 33.8329L17.8388 8.09551L43.5762 19.1223C45.353 19.8835 47.4104 19.0602 48.1717 17.2834C48.9329 15.5066 48.1096 13.4492 46.3329 12.6879L17.3783 0.282832ZM236.5 147C236.5 143.5 236.5 143.5 236.5 143.5C236.5 143.5 236.499 143.5 236.499 143.5C236.497 143.5 236.495 143.5 236.492 143.5C236.485 143.5 236.475 143.5 236.462 143.5C236.435 143.5 236.394 143.5 236.339 143.5C236.23 143.5 236.066 143.499 235.849 143.498C235.417 143.496 234.775 143.492 233.942 143.485C232.277 143.469 229.851 143.438 226.814 143.376C220.74 143.251 212.23 143.002 202.491 142.505C182.973 141.507 158.683 139.517 139.195 135.57L137.806 142.43C157.818 146.483 182.528 148.493 202.134 149.495C211.958 149.998 220.542 150.249 226.671 150.374C229.736 150.437 232.188 150.468 233.877 150.484C234.721 150.492 235.375 150.496 235.818 150.498C236.04 150.499 236.209 150.499 236.324 150.5C236.381 150.5 236.424 150.5 236.454 150.5C236.469 150.5 236.48 150.5 236.488 150.5C236.492 150.5 236.495 150.5 236.497 150.5C236.498 150.5 236.499 150.5 236.499 150.5C236.5 150.5 236.5 150.5 236.5 147ZM139.195 135.57C100.716 127.776 73.0326 110.614 53.0022 77.2004L46.9984 80.7996C68.1908 116.151 97.7054 134.309 137.806 142.43L139.195 135.57ZM53.0022 77.2004C47.4473 67.9341 39.0389 49.2879 31.9426 32.7405C28.4139 24.5124 25.2397 16.8747 22.9473 11.2934C21.8012 8.50313 20.8761 6.22787 20.2377 4.65097C19.9185 3.86255 19.6711 3.24877 19.5037 2.83258C19.4199 2.62448 19.3562 2.46579 19.3135 2.35936C19.2921 2.30615 19.2761 2.266 19.2653 2.23928C19.26 2.22592 19.256 2.21592 19.2533 2.20931C19.252 2.20601 19.251 2.20356 19.2504 2.20197C19.2501 2.20117 19.2499 2.20062 19.2497 2.20022C19.2496 2.19988 19.2495 2.19975 16 3.5C12.7505 4.80025 12.7506 4.80055 12.7508 4.80108C12.751 4.80154 12.7513 4.80227 12.7517 4.80319C12.7524 4.80504 12.7535 4.80773 12.7549 4.81128C12.7577 4.81838 12.7619 4.82888 12.7675 4.84275C12.7786 4.87047 12.7951 4.91164 12.8169 4.96588C12.8604 5.07437 12.925 5.23518 13.0096 5.44545C13.1788 5.86598 13.4281 6.48435 13.7492 7.27762C14.3914 8.86411 15.3211 11.1504 16.4721 13.9529C18.7739 19.5569 21.9625 27.2292 25.5092 35.4995C32.5635 51.9487 41.1553 71.0526 46.9984 80.7996L53.0022 77.2004Z" fill="white"/>
</svg>
