<svg width="103" height="99" viewBox="0 0 103 99" fill="none" xmlns="http://www.w3.org/2000/svg">
  <path d="M44.8426 8.48936C46.9381 2.04019 56.0619 2.04018 58.1574 8.48935L64.6341 28.4225C65.5712 31.3067 68.2589 33.2594 71.2915 33.2594H92.2504C99.0315 33.2594 101.851 41.9367 96.3649 45.9225L79.4088 58.2419C76.9554 60.0244 75.9287 63.1839 76.8659 66.0681L83.3425 86.0012C85.438 92.4504 78.0566 97.8133 72.5707 93.8275L55.6145 81.5081C53.1611 79.7256 49.8389 79.7256 47.3855 81.5081L30.4294 93.8275C24.9434 97.8133 17.562 92.4504 19.6575 86.0013L26.1341 66.0681C27.0713 63.184 26.0446 60.0244 23.5912 58.2419L6.63509 45.9225C1.1491 41.9367 3.96852 33.2594 10.7496 33.2594H31.7085C34.7411 33.2594 37.4288 31.3067 38.3659 28.4225L44.8426 8.48936Z" stroke="#DE0074" stroke-width="7"/>
</svg>
