<svg width="95" height="103" viewBox="0 0 95 103" fill="none" xmlns="http://www.w3.org/2000/svg">
  <path d="M5.41721 22.7401L54.3964 75.1748C55.9186 76.8044 55.8144 79.3641 54.1646 80.8645L51.0574 83.6903C49.4251 85.1749 49.3031 87.7009 50.785 89.3358L54.1232 93.0188C55.59 94.6371 58.0837 94.7796 59.7253 93.339L65.9991 87.8332C67.6318 86.4004 70.1097 86.5325 71.5808 88.131L81.674 99.0983C83.155 100.708 85.6538 100.829 87.2839 99.3711L91.0363 96.0152C92.676 94.5487 92.8238 92.0334 91.3672 90.385L81.4785 79.194C80.0257 77.5499 80.1684 75.0424 81.7984 73.5737L87.6121 68.3354C89.2444 66.8646 89.3848 64.3526 87.9267 62.7091L84.577 58.9336C83.1271 57.2994 80.6343 57.1308 78.9775 58.5548L75.8632 61.2316C74.1908 62.6691 71.6704 62.4818 70.2288 60.813L23.3691 6.56544C22.7701 5.87206 21.9513 5.40532 21.0495 5.24328L8.07626 2.91214C5.50443 2.45002 3.18732 4.53763 3.37968 7.14355L4.35117 20.3041C4.41833 21.2139 4.79447 22.0734 5.41721 22.7401Z" stroke="#0000E8" stroke-width="5" stroke-linecap="round"/>
</svg>
